<svg width="968" height="286" viewBox="0 0 968 286" fill="none" xmlns="http://www.w3.org/2000/svg">
<path d="M183.701 50.852L178.096 42.5703L183.701 50.852ZM989.836 109.636C983.493 113.461 974.017 116.219 961.299 117.597C948.707 118.961 933.665 118.899 916.743 117.638C882.898 115.115 842.554 107.879 801.193 98.5814C718.445 79.9806 633.202 53.5126 589.827 41.2303L584.378 60.4737C627.078 72.5648 713.345 99.3334 796.807 118.094C838.552 127.478 879.988 134.954 915.257 137.583C932.892 138.897 949.24 139.02 963.453 137.481C977.541 135.954 990.287 132.719 1000.16 126.763L989.836 109.636ZM589.827 41.2303C546.727 29.0261 474.01 9.2312 397.369 2.40712C321.073 -4.38621 238.834 1.46475 178.096 42.5703L189.305 59.1337C244.192 21.9879 320.615 15.6521 395.595 22.3283C470.23 28.9737 541.402 48.3046 584.378 60.4737L589.827 41.2303ZM178.096 42.5703C117.965 83.2652 73.7197 156.127 44.7009 217.496C30.0967 248.38 19.1601 276.768 11.872 297.437C8.22591 307.777 5.48768 316.201 3.65575 322.058C2.73967 324.987 2.04988 327.275 1.58619 328.841C1.35434 329.624 1.17899 330.227 1.06011 330.639C1.00068 330.846 0.955355 331.004 0.924149 331.114C0.908545 331.169 0.896471 331.211 0.887924 331.241C0.88365 331.257 0.880259 331.269 0.877748 331.277C0.876494 331.282 0.875273 331.286 0.874646 331.288C0.873646 331.292 0.872866 331.295 10.5 334C20.1271 336.705 20.1268 336.706 20.1267 336.707C20.1269 336.706 20.127 336.706 20.1275 336.704C20.1285 336.7 20.1304 336.694 20.1332 336.684C20.1387 336.664 20.1477 336.633 20.1602 336.589C20.1852 336.501 20.2242 336.364 20.2773 336.18C20.3833 335.812 20.5454 335.255 20.7635 334.518C21.1997 333.045 21.8598 330.855 22.7439 328.028C24.5123 322.374 27.1755 314.179 30.7338 304.088C37.8545 283.893 48.5384 256.166 62.7814 226.045C91.4567 165.403 133.812 96.6903 189.305 59.1337L178.096 42.5703Z" fill="url(#paint0_linear)"/>
<defs>
<linearGradient id="paint0_linear" x1="-7.0799" y1="189.395" x2="995.642" y2="188.752" gradientUnits="userSpaceOnUse">
<stop stop-color="#FCDED1" stop-opacity="0.3"/>
<stop offset="0.217132" stop-color="#FCDED1" stop-opacity="0"/>
<stop offset="0.721638" stop-color="#FCDED1" stop-opacity="0"/>
<stop offset="0.99131" stop-color="#FCDED1" stop-opacity="0.5"/>
</linearGradient>
</defs>
</svg>
