<svg width="25" height="25" viewBox="0 0 25 25" fill="none" xmlns="http://www.w3.org/2000/svg">
<path d="M3.16667 0.25C1.55667 0.25 0.25 1.55667 0.25 3.16667V21.8333C0.25 23.4433 1.55667 24.75 3.16667 24.75H21.8333C23.4433 24.75 24.75 23.4433 24.75 21.8333V3.16667C24.75 1.55667 23.4433 0.25 21.8333 0.25H3.16667ZM6.66667 9.83399V11.748H8.54541C8.80208 11.748 9.65283 11.6075 9.65283 10.75C9.65283 9.8925 8.54482 9.83399 8.37565 9.83399H6.66667ZM6.66667 12.9147V15.166H8.62175C8.79033 15.166 9.97982 15.1139 9.97982 14.0814C9.97982 13.0547 9.04524 12.9147 8.62175 12.9147H6.66667Z" fill="black"/>
<path d="M3.92157 7.35294V19.0717H9.51065C10.0285 19.0717 13.595 18.9653 13.595 15.6669C13.595 13.6057 12.1953 12.9055 11.4844 12.6976C12.0072 12.4477 13.0478 11.8539 13.0478 10.2628C13.0478 9.37699 12.9232 7.35294 9.35431 7.35294H3.92157ZM16.6631 8.44167V9.51061H20.9819V8.44167H16.6631ZM6.46206 9.35225H8.84621C9.07095 9.35225 10.5855 9.231 10.5855 10.6983C10.5855 11.9528 9.49111 12.084 9.04164 12.084H6.46206V9.35225ZM18.93 10.4806C15.664 10.4806 14.9825 13.3534 14.9825 14.598C14.9825 18.2922 17.9724 18.7154 18.93 18.7154C21.512 18.7154 22.2449 17.0229 22.5453 16.0826H20.6693C20.596 16.3251 20.0488 17.112 19.0082 17.112C17.264 17.112 17.1126 15.7312 17.1126 15.1126H22.6626C22.7749 12.9748 21.8516 10.4806 18.93 10.4806ZM18.8714 12.084C19.3917 12.084 19.8119 12.2374 20.0635 12.5195C20.3151 12.804 20.5007 13.2197 20.552 13.7666H17.1126C17.1223 13.6156 17.1565 13.4424 17.2103 13.2519C17.264 13.0564 17.3471 12.8708 17.4839 12.6976C17.6207 12.5269 17.8112 12.3784 18.0311 12.2621C18.2558 12.1434 18.5343 12.084 18.8714 12.084ZM6.46206 13.8458H9.21752C9.7647 13.8458 11.0545 13.9324 11.0545 15.5283C11.0545 17.0748 9.43004 17.0724 9.17843 17.0724H6.46206V13.8458Z" fill="white"/>
</svg>
